<?xml version="1.0" encoding="UTF-8"?>
<svg version="1.1" xmlns="http://www.w3.org/2000/svg" width="150" height="69">
<path d="M0 0 C1.32 9.24 2.64 18.48 4 28 C5.93237402 19.53408659 5.93237402 19.53408659 7.85913086 11.06689453 C8.10026611 10.01614746 8.34140137 8.96540039 8.58984375 7.8828125 C8.83597412 6.80402832 9.08210449 5.72524414 9.33569336 4.61376953 C10 2 10 2 11 0 C14.0833134 -0.02911321 17.16659125 -0.04683682 20.25 -0.0625 C21.12269531 -0.07087891 21.99539062 -0.07925781 22.89453125 -0.08789062 C23.73886719 -0.09111328 24.58320312 -0.09433594 25.453125 -0.09765625 C26.22817383 -0.10289307 27.00322266 -0.10812988 27.80175781 -0.11352539 C30 0 30 0 32.09667969 0.56860352 C34.20543411 1.21936068 34.20543411 1.21936068 37 0 C45.71428187 2.04130997 52.59544904 6.16988017 58.5 12.8125 C60.73492862 17.56172332 61.06086236 21.91157231 59.33984375 26.921875 C56.91713116 31.66242085 53.17305667 34.79987508 49 38 C50.485 38.495 50.485 38.495 52 39 C52.886875 38.505 53.77375 38.01 54.6875 37.5 C59.09280581 35.50514454 61.29025686 36.15070206 66 37 C66.99 37 67.98 37 69 37 C70.65 37 72.3 37 74 37 C74 46.24 74 55.48 74 65 C71.69 65 69.38 65 67 65 C65.47518686 65.22445249 63.95325472 65.47085548 62.4375 65.75 C57.75700171 66.36188178 55.82230349 64.69298655 52 62 C49.23690643 62.55474573 49.23690643 62.55474573 47 64 C44.39048764 65.30475618 42.47298715 65.11301572 39.5546875 65.09765625 C37.94013672 65.09282227 37.94013672 65.09282227 36.29296875 65.08789062 C35.16503906 65.07951172 34.03710938 65.07113281 32.875 65.0625 C31.17150391 65.05573242 31.17150391 65.05573242 29.43359375 65.04882812 C26.62234362 65.03701615 23.8111977 65.02054507 21 65 C20.67 64.34 20.34 63.68 20 63 C19.01 63.495 19.01 63.495 18 64 C16.0406396 64.08510205 14.07837206 64.10717656 12.1171875 64.09765625 C10.95058594 64.09443359 9.78398437 64.09121094 8.58203125 64.08789062 C7.35871094 64.07951172 6.13539062 64.07113281 4.875 64.0625 C3.64394531 64.05798828 2.41289062 64.05347656 1.14453125 64.04882812 C-1.90369392 64.0370133 -4.95182314 64.02054028 -8 64 C-9.27625668 57.44115347 -10.53798393 50.87962457 -11.7902832 44.31616211 C-12.2167358 42.08995406 -12.6463471 39.86434841 -13.0793457 37.6394043 C-15.45280573 25.4318625 -17.69766539 13.45896896 -18 1 C-14 0 -14 0 0 0 Z M33 3 C34 6 34 6 34 6 Z M32 7 C33 11 33 11 33 11 Z M31 12 C32 15 32 15 32 15 Z M30 16 C31 19 31 19 31 19 Z M29 21 C30 23 30 23 30 23 Z M28 25 C29 28 29 28 29 28 Z M27 30 C28 32 28 32 28 32 Z M26 34 C27 38 27 38 27 38 Z M25 39 C26 41 26 41 26 41 Z M24 43 C25 45 25 45 25 45 Z M56 50 C54.85912001 51.97104162 54.85912001 51.97104162 55 54 C56.59680727 56.53610567 58.03830554 57.01332367 60.875 58 C64.23093434 58.33681524 64.23093434 58.33681524 66.875 55.5625 C67.57625 54.716875 68.2775 53.87125 69 53 C67.75023244 49.34683329 67.32901247 48.21934164 64 46 C60.02945403 46 58.83528756 47.3139381 56 50 Z " fill="#51D6D6" transform="translate(21,2)"/>
<path d="M0 0 C1.32 9.24 2.64 18.48 4 28 C5.98 19.42 7.96 10.84 10 2 C10.33 2 10.66 2 11 2 C10.41792542 7.91775826 9.55564039 13.68570225 8.40234375 19.51953125 C7.8932586 22.23925124 7.8932586 22.23925124 8 26 C14.6 26 21.2 26 28 26 C31.03678332 32.07356664 28.29667945 39.17253143 26.57250977 45.26464844 C25.01206774 50.79592626 23.89627995 56.32749139 23 62 C37.5643402 62.46113782 37.5643402 62.46113782 51.75 59.4609375 C52.4925 59.30882812 53.235 59.15671875 54 59 C55.485 59.99 55.485 59.99 57 61 C62.25370771 61.4956328 65.46370773 60.6553906 70 58 C70 58.99 70 59.98 70 61 C71.32 61 72.64 61 74 61 C74 62.32 74 63.64 74 65 C73.030625 64.979375 72.06125 64.95875 71.0625 64.9375 C68.09419056 64.90745638 65.36159489 65.25934679 62.4375 65.75 C57.75700171 66.36188178 55.82230349 64.69298655 52 62 C49.23690643 62.55474573 49.23690643 62.55474573 47 64 C44.39048764 65.30475618 42.47298715 65.11301572 39.5546875 65.09765625 C37.94013672 65.09282227 37.94013672 65.09282227 36.29296875 65.08789062 C35.16503906 65.07951172 34.03710938 65.07113281 32.875 65.0625 C31.17150391 65.05573242 31.17150391 65.05573242 29.43359375 65.04882812 C26.62234362 65.03701615 23.8111977 65.02054507 21 65 C20.67 64.34 20.34 63.68 20 63 C19.01 63.495 19.01 63.495 18 64 C16.0406396 64.08510205 14.07837206 64.10717656 12.1171875 64.09765625 C10.95058594 64.09443359 9.78398437 64.09121094 8.58203125 64.08789062 C7.35871094 64.07951172 6.13539062 64.07113281 4.875 64.0625 C3.64394531 64.05798828 2.41289062 64.05347656 1.14453125 64.04882812 C-1.90369392 64.0370133 -4.95182314 64.02054028 -8 64 C-9.27625668 57.44115347 -10.53798393 50.87962457 -11.7902832 44.31616211 C-12.2167358 42.08995406 -12.6463471 39.86434841 -13.0793457 37.6394043 C-15.45280573 25.4318625 -17.69766539 13.45896896 -18 1 C-14 0 -14 0 0 0 Z M27 30 C28 32 28 32 28 32 Z M26 34 C27 38 27 38 27 38 Z M25 39 C26 41 26 41 26 41 Z M24 43 C25 45 25 45 25 45 Z " fill="#50CCCC" transform="translate(21,2)"/>
<path d="M0 0 C3.0833134 -0.02911321 6.16659125 -0.04683682 9.25 -0.0625 C10.12269531 -0.07087891 10.99539062 -0.07925781 11.89453125 -0.08789062 C12.73886719 -0.09111328 13.58320312 -0.09433594 14.453125 -0.09765625 C15.22817383 -0.10289307 16.00322266 -0.10812988 16.80175781 -0.11352539 C19 0 19 0 21.09667969 0.56860352 C23.20543411 1.21936068 23.20543411 1.21936068 26 0 C34.71428187 2.04130997 41.59544904 6.16988017 47.5 12.8125 C49.7385784 17.56947911 50.08327693 21.95100145 48.3046875 26.95703125 C45.61183516 32.15038933 41.61422813 36.12859062 36 38 C33.48301368 36.92745123 31.33194455 35.45196548 29 34 C29 33.67 29 33.34 29 33 C29.75925781 32.89042969 30.51851562 32.78085937 31.30078125 32.66796875 C32.29464844 32.50941406 33.28851563 32.35085937 34.3125 32.1875 C35.29863281 32.03667969 36.28476563 31.88585937 37.30078125 31.73046875 C40.3530058 31.1448342 40.3530058 31.1448342 43 28 C35.08 28.33 27.16 28.66 19 29 C19.33 28.01 19.66 27.02 20 26 C28.58 26 37.16 26 46 26 C46 25.34 46 24.68 46 24 C37.75 24 29.5 24 21 24 C21 18.16262526 21.14628718 14.41485127 22.5 9 C22.7784375 7.865625 23.056875 6.73125 23.34375 5.5625 C23.5603125 4.716875 23.776875 3.87125 24 3 C23.34 3 22.68 3 22 3 C21.896875 4.216875 21.79375 5.43375 21.6875 6.6875 C19.87903226 23.12096774 19.87903226 23.12096774 17 26 C15.44051458 26.15686249 13.87457332 26.25076639 12.30859375 26.31640625 C11.36435547 26.35830078 10.42011719 26.40019531 9.44726562 26.44335938 C8.45404297 26.48267578 7.46082031 26.52199219 6.4375 26.5625 C5.44041016 26.60568359 4.44332031 26.64886719 3.41601562 26.69335938 C0.9441585 26.79980298 -1.5278031 26.90181928 -4 27 C-3.37978531 17.83665329 -1.793762 8.99137303 0 0 Z " fill="#E7F8F8" transform="translate(32,2)"/>
<path d="M0 0 C0.33 4.95 0.66 9.9 1 15 C1.825 14.01 2.65 13.02 3.5 12 C5.41749885 10.04580261 6.46341042 9.09808627 9.1796875 8.6015625 C11.375 8.625 11.375 8.625 15 9 C14.07161713 10.31896465 13.13194268 11.62998689 12.1875 12.9375 C11.66542969 13.66839844 11.14335937 14.39929688 10.60546875 15.15234375 C9 17 9 17 6 18 C4.81120023 19.70473327 4.81120023 19.70473327 5 22 C6.58570661 24.12217932 8.09290258 25.8833556 9.9375 27.75 C10.41896484 28.25660156 10.90042969 28.76320313 11.39648438 29.28515625 C12.58653954 30.53412504 13.79186613 31.7685103 15 33 C11.91747622 36.2226385 10.71566604 36.96592066 6.0625 37.1875 C2.65035079 37.25765634 2.0379098 37.0252732 -1 35 C-1.99 35.66 -2.98 36.32 -4 37 C-7.1875 37.125 -7.1875 37.125 -10 37 C-10.12442129 32.85581385 -10.21471744 28.71264181 -10.2746582 24.56713867 C-10.2996668 23.15971925 -10.33368615 21.75242794 -10.37719727 20.34545898 C-10.77429684 7.16642482 -10.77429684 7.16642482 -7.79296875 2.53515625 C-5 0 -5 0 0 0 Z " fill="#EAF2F2" transform="translate(135,30)"/>
<path d="M0 0 C2.38312703 1.89428046 3.6500559 3.30011179 5 6 C5.26395109 9.32738344 5.23146278 12.66330008 5.25 16 C5.270625 16.928125 5.29125 17.85625 5.3125 18.8125 C5.31765625 19.699375 5.3228125 20.58625 5.328125 21.5 C5.34214355 22.72203125 5.34214355 22.72203125 5.35644531 23.96875 C5.18000488 24.97421875 5.18000488 24.97421875 5 26 C1.77208445 28.1519437 0.71599191 28.20086443 -3 28 C-3.06058594 27.03578125 -3.12117188 26.0715625 -3.18359375 25.078125 C-3.26738281 23.81484375 -3.35117188 22.5515625 -3.4375 21.25 C-3.51871094 19.99703125 -3.59992188 18.7440625 -3.68359375 17.453125 C-3.92515522 14.81682447 -4.24283934 12.51962706 -5 10 C-7.31 10.33 -9.62 10.66 -12 11 C-12.06058594 12.14339844 -12.12117188 13.28679688 -12.18359375 14.46484375 C-12.26798428 15.95574305 -12.35263302 17.44662775 -12.4375 18.9375 C-12.49647461 20.06961914 -12.49647461 20.06961914 -12.55664062 21.22460938 C-12.88671875 26.88671875 -12.88671875 26.88671875 -14 28 C-15.66617115 28.04063832 -17.33388095 28.042721 -19 28 C-19.02891949 23.70834738 -19.04677118 19.41671964 -19.0625 15.125 C-19.07087891 13.90167969 -19.07925781 12.67835937 -19.08789062 11.41796875 C-19.09111328 10.25136719 -19.09433594 9.08476563 -19.09765625 7.8828125 C-19.10289307 6.80402832 -19.10812988 5.72524414 -19.11352539 4.61376953 C-19 2 -19 2 -18 0 C-15.66666667 0 -13.33333333 0 -11 0 C-7.16499319 -1.2783356 -3.85497292 -1.02592021 0 0 Z " fill="#F6FBFB" transform="translate(119,39)"/>
<path d="M0 0 C1.89492188 0.01353516 1.89492188 0.01353516 3.828125 0.02734375 C4.79234375 0.03894531 5.7565625 0.05054687 6.75 0.0625 C7.2555539 3.62423477 7.75346114 7.18699819 8.25 10.75 C8.39308594 11.75740234 8.53617188 12.76480469 8.68359375 13.80273438 C8.81894531 14.77919922 8.95429688 15.75566406 9.09375 16.76171875 C9.21943359 17.65721436 9.34511719 18.55270996 9.47460938 19.4753418 C9.75 22.0625 9.75 22.0625 9.75 27.0625 C4.8 27.0625 -0.15 27.0625 -5.25 27.0625 C-8.28153319 19.41776412 -8.9123226 12.248266 -9.25 4.0625 C-9.91 4.0625 -10.57 4.0625 -11.25 4.0625 C-11.25 3.0725 -11.25 2.0825 -11.25 1.0625 C-7.49600202 -0.1414337 -3.91782588 -0.03627617 0 0 Z " fill="#B9F0F0" transform="translate(14.25,1.9375)"/>
<path d="M0 0 C0.99 0 1.98 0 3 0 C4.65 0 6.3 0 8 0 C8 7.92 8 15.84 8 24 C6.68 24 5.36 24 4 24 C3.67 23.34 3.34 22.68 3 22 C2.319375 22.495 1.63875 22.99 0.9375 23.5 C-2.68707015 25.35084433 -4.97508528 25.43908161 -9 25 C-11.4375 23.5 -11.4375 23.5 -13 22 C-12.67 20.35 -12.34 18.7 -12 17 C-11.34 17 -10.68 17 -10 17 C-10 17.66 -10 18.32 -10 19 C-7.1374819 19.63072433 -4.88830721 20.11745427 -2 20 C1.48304057 17.60540961 2.7607855 16.14822958 3.625 12 C2.76814736 7.88710733 1.42264067 6.40313068 -2 4 C-5.68190536 3.73993685 -5.68190536 3.73993685 -9 5 C-10.51294288 6.93597032 -10.51294288 6.93597032 -11 9 C-11.66 9 -12.32 9 -13 9 C-15 6 -15 6 -15 4 C-11.90220302 -2.19559396 -5.65705986 -1.02012555 0 0 Z " fill="#F6F9F9" transform="translate(87,39)"/>
<path d="M0 0 C0.33 0.99 0.66 1.98 1 3 C9.58 3 18.16 3 27 3 C28.1474587 9.88475218 28.1474587 9.88475218 25.3125 14.32421875 C22.49316032 17.92391138 19.38669377 20.53776874 15 22 C12.48301368 20.92745123 10.33194455 19.45196548 8 18 C8 17.67 8 17.34 8 17 C8.75925781 16.89042969 9.51851562 16.78085937 10.30078125 16.66796875 C11.29464844 16.50941406 12.28851563 16.35085937 13.3125 16.1875 C14.29863281 16.03667969 15.28476563 15.88585938 16.30078125 15.73046875 C19.3530058 15.1448342 19.3530058 15.1448342 22 12 C14.08 12.33 6.16 12.66 -2 13 C-1.67 12.01 -1.34 11.02 -1 10 C7.58 10 16.16 10 25 10 C25 9.34 25 8.68 25 8 C16.75 8 8.5 8 0 8 C0 5.36 0 2.72 0 0 Z " fill="#94E8E8" transform="translate(53,18)"/>
<path d="M0 0 C0.33 0.99 0.66 1.98 1 3 C7.6 3 14.2 3 21 3 C21 10 21 10 19 15 C8.605 15.495 8.605 15.495 -2 16 C-1.0625 4.88392857 -1.0625 4.88392857 0 0 Z " fill="#83E4E4" transform="translate(30,13)"/>
<path d="M0 0 C0.33 0.99 0.66 1.98 1 3 C1.61520508 2.93828613 2.23041016 2.87657227 2.86425781 2.81298828 C5.65755939 2.55114919 8.45254208 2.3376508 11.25 2.125 C12.21808594 2.02703125 13.18617187 1.9290625 14.18359375 1.828125 C16.90488571 1.64044969 19.30863609 1.54762668 22 2 C25.30052261 5.41701164 25.94453887 7.14035255 26.25 11.875 C26.1675 12.90625 26.085 13.9375 26 15 C25.67 13.68 25.34 12.36 25 11 C16.42 11 7.84 11 -1 11 C-0.67 7.37 -0.34 3.74 0 0 Z " fill="#B0EEEE" transform="translate(55,10)"/>
<path d="M0 0 C1.89492188 0.01353516 1.89492188 0.01353516 3.828125 0.02734375 C4.79234375 0.03894531 5.7565625 0.05054687 6.75 0.0625 C7.08 4.0225 7.41 7.9825 7.75 12.0625 C2.47 12.0625 -2.81 12.0625 -8.25 12.0625 C-9.60439668 9.35370665 -9.31501451 7.05316732 -9.25 4.0625 C-9.91 4.0625 -10.57 4.0625 -11.25 4.0625 C-11.25 3.0725 -11.25 2.0825 -11.25 1.0625 C-7.49600202 -0.1414337 -3.91782588 -0.03627617 0 0 Z " fill="#F4FCFC" transform="translate(14.25,1.9375)"/>
<path d="M0 0 C0.33 0 0.66 0 1 0 C1 1.65 1 3.3 1 5 C7.6 5 14.2 5 21 5 C20.67 8.3 20.34 11.6 20 15 C19.67 14.34 19.34 13.68 19 13 C12.4 13 5.8 13 -1 13 C-0.67 8.71 -0.34 4.42 0 0 Z " fill="#DDF5F5" transform="translate(32,3)"/>
<path d="M0 0 C0.33 0 0.66 0 1 0 C1.07416067 4.64473982 1.12860615 9.28913499 1.16479492 13.93432617 C1.17988094 15.51446536 1.2003525 17.09456269 1.22631836 18.67456055 C1.26271126 20.94590585 1.27972762 23.21669759 1.29296875 25.48828125 C1.30845261 26.19463211 1.32393646 26.90098297 1.33988953 27.6287384 C1.34090037 30.57506648 1.33847875 32.52155106 -0.39331055 34.96948242 C-2 36 -2 36 -4 36 C-4.09938095 31.83746725 -4.17170617 27.67557521 -4.21972656 23.51220703 C-4.23975843 22.09802205 -4.26699248 20.68391903 -4.30175781 19.27001953 C-4.35065489 17.22928581 -4.37305123 15.1896531 -4.390625 13.1484375 C-4.41157227 11.92302246 -4.43251953 10.69760742 -4.45410156 9.43505859 C-3.91540127 5.36005153 -2.54268676 3.18536394 0 0 Z " fill="#010505" transform="translate(129,31)"/>
<path d="M0 0 C0.33 0.99 0.66 1.98 1 3 C7.6 3 14.2 3 21 3 C21 5.31 21 7.62 21 10 C20.34 9.67 19.68 9.34 19 9 C17.55151418 8.91657841 16.09929131 8.89267139 14.6484375 8.90234375 C13.37226562 8.90717773 13.37226562 8.90717773 12.0703125 8.91210938 C11.18085937 8.92048828 10.29140625 8.92886719 9.375 8.9375 C8.02921875 8.94426758 8.02921875 8.94426758 6.65625 8.95117188 C4.43747169 8.96297389 2.21872757 8.98090961 0 9 C0 6.03 0 3.06 0 0 Z " fill="#B1EBEB" transform="translate(30,13)"/>
<path d="M0 0 C3.0833134 -0.02911321 6.16659125 -0.04683682 9.25 -0.0625 C10.12269531 -0.07087891 10.99539062 -0.07925781 11.89453125 -0.08789062 C12.73886719 -0.09111328 13.58320312 -0.09433594 14.453125 -0.09765625 C15.22817383 -0.10289307 16.00322266 -0.10812988 16.80175781 -0.11352539 C18.99283598 -0.00036998 20.89637861 0.39447552 23 1 C22.67 2.98 22.34 4.96 22 7 C15.07 6.67 8.14 6.34 1 6 C0.67 4.02 0.34 2.04 0 0 Z " fill="#F4FCFC" transform="translate(32,2)"/>
<path d="M0 0 C2.4375 0.25 2.4375 0.25 5 1 C6.99307681 3.98961521 7.2731443 4.77870088 7.44921875 8.16015625 C7.49240234 8.95357422 7.53558594 9.74699219 7.58007812 10.56445312 C7.61552734 11.38880859 7.65097656 12.21316406 7.6875 13.0625 C7.73455078 13.89072266 7.78160156 14.71894531 7.83007812 15.57226562 C8.13564605 21.7287079 8.13564605 21.7287079 7 24 C5.68 24 4.36 24 3 24 C2.93941406 23.03578125 2.87882812 22.0715625 2.81640625 21.078125 C2.73261719 19.81484375 2.64882812 18.5515625 2.5625 17.25 C2.48128906 15.99703125 2.40007812 14.7440625 2.31640625 13.453125 C2.03417168 9.63230661 2.03417168 9.63230661 1 6 C0.01 5.67 -0.98 5.34 -2 5 C-1.125 1.125 -1.125 1.125 0 0 Z " fill="#000202" transform="translate(113,43)"/>
<path d="M0 0 C3.5625 0.9375 3.5625 0.9375 6 3.125 C7.79125985 6.34926773 7.90035628 8.30554503 7.5625 11.9375 C6.9025 11.9375 6.2425 11.9375 5.5625 11.9375 C5.2325 10.6175 4.9025 9.2975 4.5625 7.9375 C1.81288489 6.99142193 1.81288489 6.99142193 -1.4375 6.9375 C-4.25018079 9.16680256 -4.25018079 9.16680256 -6.4375 11.9375 C-7.0975 12.5975 -7.7575 13.2575 -8.4375 13.9375 C-8.7675 11.2975 -9.0975 8.6575 -9.4375 5.9375 C-8.7775 5.9375 -8.1175 5.9375 -7.4375 5.9375 C-7.334375 5.31875 -7.23125 4.7 -7.125 4.0625 C-5.87603675 0.20206815 -3.78616521 -0.06883937 0 0 Z " fill="#AADEDE" transform="translate(83.4375,42.0625)"/>
<path d="M0 0 C0.33 0 0.66 0 1 0 C1.17378174 1.00385742 1.34756348 2.00771484 1.52661133 3.04199219 C2.89553063 10.90004769 4.31472285 18.74578788 5.82421875 26.578125 C5.97698273 27.37287231 6.1297467 28.16761963 6.28713989 28.9864502 C6.91331446 32.24102861 7.54054292 35.49537943 8.17407227 38.74853516 C8.64494857 41.17011687 9.11004121 43.59275162 9.57421875 46.015625 C9.71792404 46.74581848 9.86162933 47.47601196 10.00968933 48.22833252 C10.70221144 51.86722092 11.16505784 55.29366014 11 59 C10.01 59.495 10.01 59.495 9 60 C7.70252686 53.38678078 6.42279078 46.77029904 5.15478516 40.15136719 C4.72224912 37.90450217 4.28579846 35.65838679 3.84521484 33.41308594 C3.20916929 30.16795558 2.58769471 26.92030503 1.96875 23.671875 C1.77188599 22.68386902 1.57502197 21.69586304 1.37219238 20.67791748 C0.0672088 13.72456934 -0.22086517 7.06710116 0 0 Z " fill="#0A1313" transform="translate(4,6)"/>
<path d="M0 0 C0.33 0.99 0.66 1.98 1 3 C1.66 3.33 2.32 3.66 3 4 C2.67 4.66 2.34 5.32 2 6 C6.95 6 11.9 6 17 6 C17.33 8.31 17.66 10.62 18 13 C13.05 13 8.1 13 3 13 C0 4.5 0 4.5 0 0 Z " fill="#82DFDF" transform="translate(6,16)"/>
<path d="M0 0 C0.33 0.99 0.66 1.98 1 3 C1.93066284 2.92313965 1.93066284 2.92313965 2.88012695 2.84472656 C5.68971244 2.62486197 8.50055047 2.43709645 11.3125 2.25 C12.28896484 2.16878906 13.26542969 2.08757813 14.27148438 2.00390625 C15.67817383 1.91689453 15.67817383 1.91689453 17.11328125 1.828125 C17.97735596 1.7652832 18.84143066 1.70244141 19.73168945 1.63769531 C22 2 22 2 23.86791992 3.82324219 C24.24150635 4.54157227 24.61509277 5.25990234 25 6 C24.67 6.99 24.34 7.98 24 9 C24 8.34 24 7.68 24 7 C16.08 7 8.16 7 0 7 C0 4.69 0 2.38 0 0 Z " fill="#C9F3F3" transform="translate(55,10)"/>
<path d="M0 0 C2.64590014 -0.02684679 5.29153096 -0.04676357 7.9375 -0.0625 C8.69224609 -0.07087891 9.44699219 -0.07925781 10.22460938 -0.08789062 C12.14994313 -0.09652441 14.07535581 -0.05224333 16 0 C17 1 17 1 17 6 C11.72 6 6.44 6 1 6 C0.67 4.02 0.34 2.04 0 0 Z " fill="#D8F6F6" transform="translate(5,8)"/>
<path d="M0 0 C0.33 0.99 0.66 1.98 1 3 C2.32 3 3.64 3 5 3 C5 4.32 5 5.64 5 7 C4.030625 6.979375 3.06125 6.95875 2.0625 6.9375 C-0.90580944 6.90745638 -3.63840511 7.25934679 -6.5625 7.75 C-10.23844244 8.20319838 -11.01090742 7.99464197 -14.5625 6.25 C-15.366875 5.5075 -16.17125 4.765 -17 4 C-17 3.01 -17 2.02 -17 1 C-16.319375 1.33 -15.63875 1.66 -14.9375 2 C-11.38445726 3.20954646 -8.73590914 3.33356332 -5 3 C-2.12853006 1.63002843 -2.12853006 1.63002843 0 0 Z " fill="#5EC8C8" transform="translate(90,60)"/>
<path d="M0 0 C0.33 0.66 0.66 1.32 1 2 C7.6 2 14.2 2 21 2 C21 3.98 21 5.96 21 8 C20.67 7.34 20.34 6.68 20 6 C13.4 6 6.8 6 0 6 C0 4.02 0 2.04 0 0 Z " fill="#C8F3F3" transform="translate(31,10)"/>
<path d="M0 0 C3.42009706 1.14003235 4.28869442 2.22170198 6.5625 4.9375 C8.33130568 7.03343963 10.05994888 9.05994888 12 11 C8.88578592 12.8454602 6.61678684 13.46369062 3 13 C1.359375 11.8046875 1.359375 11.8046875 0 10 C-0.29296875 7.51953125 -0.29296875 7.51953125 -0.1875 4.8125 C-0.16042969 3.91144531 -0.13335937 3.01039062 -0.10546875 2.08203125 C-0.07066406 1.39496094 -0.03585938 0.70789062 0 0 Z " fill="#1E4242" transform="translate(134,54)"/>
<path d="M0 0 C-6.25228177 4.50519027 -11.38507981 4.49377768 -18.9375 4.25 C-20.53561523 4.22292969 -20.53561523 4.22292969 -22.16601562 4.1953125 C-24.77828929 4.14845557 -27.38866226 4.08286926 -30 4 C-29.67 3.01 -29.34 2.02 -29 1 C-27.70964844 1.02320312 -26.41929688 1.04640625 -25.08984375 1.0703125 C-23.37240166 1.08908236 -21.65495326 1.10728125 -19.9375 1.125 C-18.66616211 1.15013672 -18.66616211 1.15013672 -17.36914062 1.17578125 C-13.39443773 1.20647394 -9.87827805 1.1230912 -6.06640625 -0.0703125 C-3 -1 -3 -1 0 0 Z " fill="#C7D4D4" transform="translate(73,63)"/>
<path d="M0 0 C0.33 0 0.66 0 1 0 C1 7.92 1 15.84 1 24 C1.99 24 2.98 24 4 24 C4 24.99 4 25.98 4 27 C2.35 27 0.7 27 -1 27 C-1.02886537 22.68751391 -1.04675255 18.37505238 -1.0625 14.0625 C-1.07087891 12.83080078 -1.07925781 11.59910156 -1.08789062 10.33007812 C-1.09111328 9.16025391 -1.09433594 7.99042969 -1.09765625 6.78515625 C-1.10289307 5.70113525 -1.10812988 4.61711426 -1.11352539 3.50024414 C-1 1 -1 1 0 0 Z " fill="#283F3F" transform="translate(101,40)"/>
<path d="M0 0 C0.66 0.33 1.32 0.66 2 1 C-0.55906769 4.2889736 -2.99396903 7.30351702 -6.4375 9.6875 C-10.49602578 10.18244217 -12.65382555 8.23078297 -16 6 C-16 5.67 -16 5.34 -16 5 C-14.89591797 4.83564453 -14.89591797 4.83564453 -13.76953125 4.66796875 C-8.50728669 3.8129409 -4.48086807 3.03542676 0 0 Z " fill="#D6E1E1" transform="translate(77,30)"/>
<path d="M0 0 C6.6 0 13.2 0 20 0 C20.33 1.32 20.66 2.64 21 4 C20.34 3.67 19.68 3.34 19 3 C17.55151418 2.91657841 16.09929131 2.89267139 14.6484375 2.90234375 C13.37226562 2.90717773 13.37226562 2.90717773 12.0703125 2.91210938 C11.18085937 2.92048828 10.29140625 2.92886719 9.375 2.9375 C8.02921875 2.94426758 8.02921875 2.94426758 6.65625 2.95117188 C4.43743352 2.96297409 2.21874982 2.97943845 0 3 C0 2.01 0 1.02 0 0 Z " fill="#A0ECEC" transform="translate(30,19)"/>
<path d="M0 0 C8.58 0 17.16 0 26 0 C25.34 1.32 24.68 2.64 24 4 C23.67 3.34 23.34 2.68 23 2 C15.08 2.33 7.16 2.66 -1 3 C-0.67 2.01 -0.34 1.02 0 0 Z " fill="#73E2E2" transform="translate(52,28)"/>
<path d="M0 0 C0.33 0 0.66 0 1 0 C1.01981934 0.95890137 1.03963867 1.91780273 1.06005859 2.90576172 C1.13604145 6.45811553 1.2247693 10.01005576 1.31738281 13.56201172 C1.35570301 15.10034021 1.39055056 16.63875925 1.421875 18.17724609 C1.46746059 20.38672276 1.5254634 22.59557448 1.5859375 24.8046875 C1.59748871 25.49432587 1.60903992 26.18396423 1.62094116 26.89450073 C1.64951022 30.8920154 1.64951022 30.8920154 4 34 C1 36 1 36 -1.1875 35.625 C-1.785625 35.41875 -2.38375 35.2125 -3 35 C-2.34 34.34 -1.68 33.68 -1 33 C-0.75484303 30.49624532 -0.62666342 28.09450521 -0.5859375 25.5859375 C-0.56657135 24.85629791 -0.5472052 24.12665833 -0.5272522 23.37490845 C-0.46741578 21.04172498 -0.42105577 18.70849227 -0.375 16.375 C-0.33682386 14.79424918 -0.29777235 13.21351924 -0.2578125 11.6328125 C-0.16171122 7.7553777 -0.07769588 3.87784551 0 0 Z " fill="#B7D6D6" transform="translate(130,31)"/>
<path d="M0 0 C4.62 0 9.24 0 14 0 C14 0.99 14 1.98 14 3 C9.05 3 4.1 3 -1 3 C-0.67 2.01 -0.34 1.02 0 0 Z " fill="#A0ECEC" transform="translate(9,19)"/>
<path d="M0 0 C1.67542976 0.28604898 3.34385343 0.61781233 5 1 C5.33 1.99 5.66 2.98 6 4 C5.01 4.99 4.02 5.98 3 7 C0.525 6.01 0.525 6.01 -2 5 C-1.125 1.125 -1.125 1.125 0 0 Z " fill="#132E2E" transform="translate(113,43)"/>
<path d="M0 0 C3.875 1.75 3.875 1.75 5 4 C5.039992 5.99960012 5.04346799 8.00047242 5 10 C4.34 10 3.68 10 3 10 C2.896875 9.360625 2.79375 8.72125 2.6875 8.0625 C2.460625 7.381875 2.23375 6.70125 2 6 C1.01 5.67 0.02 5.34 -1 5 C-0.67 3.35 -0.34 1.7 0 0 Z " fill="#194343" transform="translate(86,44)"/>
<path d="M0 0 C-0.639375 0.433125 -1.27875 0.86625 -1.9375 1.3125 C-4.26746003 2.91239177 -4.26746003 2.91239177 -5 6 C-7.5625 7.1875 -7.5625 7.1875 -10 8 C-9.64505955 5.37344067 -9.27538036 3.42031739 -7.8125 1.1875 C-5.20638339 -0.51995571 -3.0400645 -0.20267097 0 0 Z " fill="#67CBCB" transform="translate(116,42)"/>
<path d="M0 0 C3.93673644 1.31224548 6.22719294 2.91910327 9 6 C8.01 6.33 7.02 6.66 6 7 C2.8125 5.25 2.8125 5.25 0 3 C0 2.01 0 1.02 0 0 Z " fill="#1C5252" transform="translate(73,61)"/>
<path d="M0 0 C1.98 0 3.96 0 6 0 C5.3125 2.4375 5.3125 2.4375 4 5 C1.375 5.8125 1.375 5.8125 -1 6 C-0.67 4.02 -0.34 2.04 0 0 Z " fill="#39A6A6" transform="translate(81,43)"/>
<path d="M0 0 C0.33 0 0.66 0 1 0 C1.19421438 2.95803435 1.38066186 5.91620163 1.5625 8.875 C1.61857422 9.71675781 1.67464844 10.55851562 1.73242188 11.42578125 C1.78076172 12.23144531 1.82910156 13.03710938 1.87890625 13.8671875 C1.94960327 14.98262939 1.94960327 14.98262939 2.02172852 16.12060547 C2 18 2 18 1 20 C0.01 20 -0.98 20 -2 20 C-1.505 18.515 -1.505 18.515 -1 17 C-0.85596652 15.66636297 -0.75409577 14.32781954 -0.68359375 12.98828125 C-0.64169922 12.23095703 -0.59980469 11.47363281 -0.55664062 10.69335938 C-0.51732422 9.90767578 -0.47800781 9.12199219 -0.4375 8.3125 C-0.39431641 7.51521484 -0.35113281 6.71792969 -0.30664062 5.89648438 C-0.20072632 3.93118553 -0.09987449 1.96561504 0 0 Z " fill="#5F8181" transform="translate(119,47)"/>
<path d="M0 0 C0.33 0.99 0.66 1.98 1 3 C2.32 3 3.64 3 5 3 C5 4.32 5 5.64 5 7 C3.35 7 1.7 7 0 7 C0 4.69 0 2.38 0 0 Z " fill="#57A1A1" transform="translate(90,60)"/>
<path d="M0 0 C2.97 0.33 5.94 0.66 9 1 C9 1.66 9 2.32 9 3 C5.7 3 2.4 3 -1 3 C-0.67 2.01 -0.34 1.02 0 0 Z " fill="#969999" transform="translate(44,64)"/>
<path d="M0 0 C0.763125 0.0825 1.52625 0.165 2.3125 0.25 C0.9925 0.58 -0.3275 0.91 -1.6875 1.25 C-1.81125 2.384375 -1.935 3.51875 -2.0625 4.6875 C-2.26875 5.863125 -2.475 7.03875 -2.6875 8.25 C-3.6775 8.745 -3.6775 8.745 -4.6875 9.25 C-5.60804342 6.23731243 -5.96611489 4.82270838 -4.5625 1.9375 C-2.6875 0.25 -2.6875 0.25 0 0 Z " fill="#7ED7D7" transform="translate(82.6875,41.75)"/>
<path d="M0 0 C0.33 0 0.66 0 1 0 C1.33 3.63 1.66 7.26 2 11 C1.01 11.495 1.01 11.495 0 12 C-1.28571429 3.42857143 -1.28571429 3.42857143 0 0 Z " fill="#0C1B1B" transform="translate(13,54)"/>
<path d="M0 0 C0.66 0.33 1.32 0.66 2 1 C2 2.98 2 4.96 2 7 C1.34 7 0.68 7 0 7 C-0.38133299 5.0085944 -0.71325582 3.00720923 -1 1 C-0.67 0.67 -0.34 0.34 0 0 Z " fill="#222929" transform="translate(89,47)"/>
<path d="M0 0 C2.0625 0.4375 2.0625 0.4375 4 1 C2.71034824 2.37562854 1.37310707 3.70766393 0 5 C-0.66 5 -1.32 5 -2 5 C-1.125 1.125 -1.125 1.125 0 0 Z " fill="#257272" transform="translate(113,43)"/>
</svg>
